<mxfile host="Electron" agent="Mozilla/5.0 (Windows NT 10.0; Win64; x64) AppleWebKit/537.36 (KHTML, like Gecko) draw.io/26.0.16 Chrome/132.0.6834.196 Electron/34.2.0 Safari/537.36" version="26.0.16">
  <diagram name="Page-1" id="Hm2mue9jjJ1DvO308yGI">
    <mxGraphModel dx="1434" dy="884" grid="1" gridSize="10" guides="1" tooltips="1" connect="1" arrows="1" fold="1" page="1" pageScale="1" pageWidth="850" pageHeight="1100" math="0" shadow="0">
      <root>
        <mxCell id="0" />
        <mxCell id="1" parent="0" />
        <mxCell id="vU_zS1e3Q_qV70ECnaDZ-7" style="edgeStyle=orthogonalEdgeStyle;rounded=0;orthogonalLoop=1;jettySize=auto;html=1;entryX=0.5;entryY=0;entryDx=0;entryDy=0;fontSize=16;" edge="1" parent="1" source="vU_zS1e3Q_qV70ECnaDZ-2" target="vU_zS1e3Q_qV70ECnaDZ-3">
          <mxGeometry relative="1" as="geometry" />
        </mxCell>
        <mxCell id="vU_zS1e3Q_qV70ECnaDZ-2" value="Start" style="strokeWidth=2;html=1;shape=mxgraph.flowchart.start_1;whiteSpace=wrap;fillColor=#ffe6cc;strokeColor=#d79b00;fontSize=16;fontStyle=1" vertex="1" parent="1">
          <mxGeometry x="360" y="260" width="130" height="60" as="geometry" />
        </mxCell>
        <mxCell id="vU_zS1e3Q_qV70ECnaDZ-9" style="edgeStyle=orthogonalEdgeStyle;rounded=0;orthogonalLoop=1;jettySize=auto;html=1;fontSize=16;" edge="1" parent="1" source="vU_zS1e3Q_qV70ECnaDZ-3" target="vU_zS1e3Q_qV70ECnaDZ-4">
          <mxGeometry relative="1" as="geometry" />
        </mxCell>
        <mxCell id="vU_zS1e3Q_qV70ECnaDZ-3" value="READ r" style="shape=parallelogram;html=1;strokeWidth=2;perimeter=parallelogramPerimeter;whiteSpace=wrap;rounded=1;arcSize=12;size=0.23;fillColor=#ffe6cc;strokeColor=#d79b00;fontSize=16;" vertex="1" parent="1">
          <mxGeometry x="320" y="380" width="210" height="60" as="geometry" />
        </mxCell>
        <mxCell id="vU_zS1e3Q_qV70ECnaDZ-10" style="edgeStyle=orthogonalEdgeStyle;rounded=0;orthogonalLoop=1;jettySize=auto;html=1;entryX=0.5;entryY=0;entryDx=0;entryDy=0;fontSize=16;" edge="1" parent="1" source="vU_zS1e3Q_qV70ECnaDZ-4" target="vU_zS1e3Q_qV70ECnaDZ-5">
          <mxGeometry relative="1" as="geometry" />
        </mxCell>
        <mxCell id="vU_zS1e3Q_qV70ECnaDZ-4" value="AREA = 3.14 * r * r" style="rounded=1;whiteSpace=wrap;html=1;absoluteArcSize=1;arcSize=14;strokeWidth=2;fillColor=#ffe6cc;strokeColor=#d79b00;fontSize=16;fontStyle=1" vertex="1" parent="1">
          <mxGeometry x="320" y="500" width="210" height="100" as="geometry" />
        </mxCell>
        <mxCell id="vU_zS1e3Q_qV70ECnaDZ-5" value="PRINT AREA" style="shape=parallelogram;html=1;strokeWidth=2;perimeter=parallelogramPerimeter;whiteSpace=wrap;rounded=1;arcSize=12;size=0.23;fillColor=#ffe6cc;strokeColor=#d79b00;fontSize=16;" vertex="1" parent="1">
          <mxGeometry x="320" y="660" width="210" height="60" as="geometry" />
        </mxCell>
        <mxCell id="vU_zS1e3Q_qV70ECnaDZ-6" value="End" style="strokeWidth=2;html=1;shape=mxgraph.flowchart.start_1;whiteSpace=wrap;fillColor=#ffe6cc;strokeColor=#d79b00;fontSize=16;fontStyle=1" vertex="1" parent="1">
          <mxGeometry x="360" y="780" width="130" height="60" as="geometry" />
        </mxCell>
        <mxCell id="vU_zS1e3Q_qV70ECnaDZ-11" style="edgeStyle=orthogonalEdgeStyle;rounded=0;orthogonalLoop=1;jettySize=auto;html=1;entryX=0.5;entryY=0;entryDx=0;entryDy=0;entryPerimeter=0;fontSize=16;" edge="1" parent="1" source="vU_zS1e3Q_qV70ECnaDZ-5" target="vU_zS1e3Q_qV70ECnaDZ-6">
          <mxGeometry relative="1" as="geometry" />
        </mxCell>
        <mxCell id="vU_zS1e3Q_qV70ECnaDZ-12" value="Area of &lt;font style=&quot;color: rgb(51, 51, 255);&quot;&gt;Circle&lt;/font&gt;" style="text;html=1;align=center;verticalAlign=middle;resizable=0;points=[];autosize=1;strokeColor=none;fillColor=none;fontSize=24;fontStyle=5;fontColor=#000000;" vertex="1" parent="1">
          <mxGeometry x="90" y="120" width="170" height="40" as="geometry" />
        </mxCell>
      </root>
    </mxGraphModel>
  </diagram>
</mxfile>
